<svg width="25" height="24" viewBox="0 0 25 24" fill="none" xmlns="http://www.w3.org/2000/svg">
<g id="vuesax/linear/cards">
<path id="Vector" d="M2.5 12.6099H19.5" stroke="#292D32" stroke-width="1.5" stroke-miterlimit="10" stroke-linecap="round" stroke-linejoin="round"/>
<path id="Vector_2" d="M19.5 10.2798V17.4298C19.47 20.2798 18.69 20.9998 15.72 20.9998H6.28003C3.26003 20.9998 2.5 20.2498 2.5 17.2698V10.2798C2.5 7.5798 3.13 6.70981 5.5 6.56981C5.74 6.55981 6.00003 6.5498 6.28003 6.5498H15.72C18.74 6.5498 19.5 7.2998 19.5 10.2798Z" stroke="#292D32" stroke-width="1.5" stroke-linecap="round" stroke-linejoin="round"/>
<path id="Vector_3" d="M22.5 6.73V13.72C22.5 16.42 21.87 17.29 19.5 17.43V10.28C19.5 7.3 18.74 6.55 15.72 6.55H6.28003C6.00003 6.55 5.74 6.56 5.5 6.57C5.53 3.72 6.31003 3 9.28003 3H18.72C21.74 3 22.5 3.75 22.5 6.73Z" stroke="#292D32" stroke-width="1.5" stroke-linecap="round" stroke-linejoin="round"/>
<path id="Vector_4" d="M5.75 17.8101H7.46997" stroke="#292D32" stroke-width="1.5" stroke-miterlimit="10" stroke-linecap="round" stroke-linejoin="round"/>
<path id="Vector_5" d="M9.60986 17.8101H13.0499" stroke="#292D32" stroke-width="1.5" stroke-miterlimit="10" stroke-linecap="round" stroke-linejoin="round"/>
</g>
</svg>
