<svg width="21" height="21" viewBox="0 0 21 21" fill="none" xmlns="http://www.w3.org/2000/svg">
<g id="SVG">
<path id="Vector" d="M9.625 14H11.375V15.75H9.625V14ZM10.5 1.75C5.67 1.75 1.75 5.67 1.75 10.5C1.75 15.33 5.67 19.25 10.5 19.25C15.33 19.25 19.25 15.33 19.25 10.5C19.25 5.67 15.33 1.75 10.5 1.75ZM10.5 17.5C6.64125 17.5 3.5 14.3587 3.5 10.5C3.5 6.64125 6.64125 3.5 10.5 3.5C14.3587 3.5 17.5 6.64125 17.5 10.5C17.5 14.3587 14.3587 17.5 10.5 17.5ZM10.5 5.25C8.56625 5.25 7 6.81625 7 8.75H8.75C8.75 7.7875 9.5375 7 10.5 7C11.4625 7 12.25 7.7875 12.25 8.75C12.25 10.5 9.625 10.2812 9.625 13.125H11.375C11.375 11.1562 14 10.9375 14 8.75C14 6.81625 12.4338 5.25 10.5 5.25Z" fill="#182841"/>
</g>
</svg>
