<svg width="29" height="30" viewBox="0 0 29 30" fill="none" xmlns="http://www.w3.org/2000/svg">
<g id="vuesax/linear/message">
<g id="message">
<path id="Vector" d="M10.764 23.6638H10.1766C5.47731 23.6638 3.12769 22.4401 3.12769 16.3212V10.2024C3.12769 5.30739 5.47731 2.85986 10.1766 2.85986H19.5751C24.2743 2.85986 26.6239 5.30739 26.6239 10.2024V16.3212C26.6239 21.2163 24.2743 23.6638 19.5751 23.6638H18.9876C18.6235 23.6638 18.271 23.8474 18.0478 24.1533L16.2856 26.6009C15.5102 27.6778 14.2414 27.6778 13.466 26.6009L11.7038 24.1533C11.5158 23.8841 11.0812 23.6638 10.764 23.6638Z" stroke="#404040" stroke-width="1.69173" stroke-miterlimit="10" stroke-linecap="round" stroke-linejoin="round"/>
<path id="Vector_2" d="M19.5709 13.8736H19.5815" stroke="#404040" stroke-width="2.25564" stroke-linecap="round" stroke-linejoin="round"/>
<path id="Vector_3" d="M14.8705 13.8736H14.8811" stroke="#404040" stroke-width="2.25564" stroke-linecap="round" stroke-linejoin="round"/>
<path id="Vector_4" d="M10.1701 13.8736H10.1806" stroke="#292D32" stroke-width="2.25564" stroke-linecap="round" stroke-linejoin="round"/>
</g>
</g>
</svg>
