<svg width="29" height="30" viewBox="0 0 29 30" fill="none" xmlns="http://www.w3.org/2000/svg">
<g id="vuesax/linear/profile">
<g id="profile">
<path id="Vector" d="M15.0638 13.5642C14.9463 13.552 14.8053 13.552 14.6761 13.5642C11.8801 13.4663 9.65967 11.08 9.65967 8.14298C9.65967 5.14476 11.9858 2.70947 14.8758 2.70947C17.7541 2.70947 20.092 5.14476 20.092 8.14298C20.0803 11.08 17.8599 13.4663 15.0638 13.5642Z" stroke="#404040" stroke-width="1.69173" stroke-linecap="round" stroke-linejoin="round"/>
<path id="Vector_2" d="M9.18966 18.0805C6.34661 20.063 6.34661 23.2937 9.18966 25.264C12.4204 27.5157 17.7188 27.5157 20.9495 25.264C23.7926 23.2815 23.7926 20.0508 20.9495 18.0805C17.7305 15.841 12.4321 15.841 9.18966 18.0805Z" stroke="#404040" stroke-width="1.69173" stroke-linecap="round" stroke-linejoin="round"/>
</g>
</g>
</svg>
