<svg width="29" height="29" viewBox="0 0 29 29" fill="none" xmlns="http://www.w3.org/2000/svg">
<g id="vuesax/linear/setting-2">
<g id="setting-2">
<path id="Vector" d="M14.8758 17.7574C16.8222 17.7574 18.4002 16.1794 18.4002 14.2329C18.4002 12.2864 16.8222 10.7085 14.8758 10.7085C12.9293 10.7085 11.3513 12.2864 11.3513 14.2329C11.3513 16.1794 12.9293 17.7574 14.8758 17.7574Z" stroke="#404040" stroke-width="1.69173" stroke-miterlimit="10" stroke-linecap="round" stroke-linejoin="round"/>
<path id="Vector_2" d="M3.12769 15.2668V13.1991C3.12769 11.9773 4.12628 10.967 5.35983 10.967C7.48624 10.967 8.3556 9.46324 7.28652 7.61879C6.67562 6.56146 7.03981 5.18692 8.10889 4.57602L10.1413 3.41296C11.0694 2.8608 12.2677 3.18974 12.8199 4.11785L12.9491 4.34106C14.0064 6.18552 15.7452 6.18552 16.8142 4.34106L16.9435 4.11785C17.4956 3.18974 18.6939 2.8608 19.622 3.41296L21.6545 4.57602C22.7235 5.18692 23.0877 6.56146 22.4768 7.61879C21.4078 9.46324 22.2771 10.967 24.4035 10.967C25.6253 10.967 26.6357 11.9656 26.6357 13.1991V15.2668C26.6357 16.4886 25.6371 17.499 24.4035 17.499C22.2771 17.499 21.4078 19.0027 22.4768 20.8472C23.0877 21.9162 22.7235 23.279 21.6545 23.8899L19.622 25.053C18.6939 25.6052 17.4956 25.2762 16.9435 24.3481L16.8142 24.1249C15.7569 22.2804 14.0182 22.2804 12.9491 24.1249L12.8199 24.3481C12.2677 25.2762 11.0694 25.6052 10.1413 25.053L8.10889 23.8899C7.03981 23.279 6.67562 21.9045 7.28652 20.8472C8.3556 19.0027 7.48624 17.499 5.35983 17.499C4.12628 17.499 3.12769 16.4886 3.12769 15.2668Z" stroke="#404040" stroke-width="1.69173" stroke-miterlimit="10" stroke-linecap="round" stroke-linejoin="round"/>
</g>
</g>
</svg>
