<svg width="29" height="29" viewBox="0 0 29 29" fill="none" xmlns="http://www.w3.org/2000/svg">
<g id="vuesax/linear/shopping-cart">
<g id="shopping-cart">
<path id="Vector" d="M3.12769 2.4248H5.17186C6.44066 2.4248 7.43925 3.51738 7.33351 4.77443L6.35842 16.4755C6.19394 18.3905 7.70944 20.0352 9.63614 20.0352H22.1479C23.8396 20.0352 25.3199 18.649 25.4491 16.969L26.0835 8.15789C26.2245 6.2077 24.7442 4.6217 22.7823 4.6217H7.61548" stroke="#404040" stroke-width="1.69173" stroke-miterlimit="10" stroke-linecap="round" stroke-linejoin="round"/>
<path id="Vector_2" d="M19.8687 25.9209C20.6797 25.9209 21.3372 25.2634 21.3372 24.4524C21.3372 23.6414 20.6797 22.9839 19.8687 22.9839C19.0576 22.9839 18.4001 23.6414 18.4001 24.4524C18.4001 25.2634 19.0576 25.9209 19.8687 25.9209Z" stroke="#404040" stroke-width="1.69173" stroke-miterlimit="10" stroke-linecap="round" stroke-linejoin="round"/>
<path id="Vector_3" d="M10.4705 25.9209C11.2815 25.9209 11.939 25.2634 11.939 24.4524C11.939 23.6414 11.2815 22.9839 10.4705 22.9839C9.65943 22.9839 9.00195 23.6414 9.00195 24.4524C9.00195 25.2634 9.65943 25.9209 10.4705 25.9209Z" stroke="#404040" stroke-width="1.69173" stroke-miterlimit="10" stroke-linecap="round" stroke-linejoin="round"/>
<path id="Vector_4" d="M11.3513 9.47363H25.4491" stroke="#404040" stroke-width="1.69173" stroke-miterlimit="10" stroke-linecap="round" stroke-linejoin="round"/>
</g>
</g>
</svg>
